<?xml version="1.0" encoding="UTF-8" standalone="no"?>
<!DOCTYPE svg PUBLIC "-//W3C//DTD SVG 1.1//EN"
 "http://www.w3.org/Graphics/SVG/1.1/DTD/svg11.dtd">
<!-- Generated by graphviz version 2.44.0 (0)
 -->
<!-- Title: systemd Pages: 1 -->
<svg width="905pt" height="692pt"
 viewBox="0.00 0.00 905.34 692.00" xmlns="http://www.w3.org/2000/svg" xmlns:xlink="http://www.w3.org/1999/xlink">
<g id="graph0" class="graph" transform="scale(1 1) rotate(0) translate(4 688)">
<title>systemd</title>
<polygon fill="white" stroke="transparent" points="-4,4 -4,-688 901.34,-688 901.34,4 -4,4"/>
<!-- openchami.target -->
<g id="node1" class="node">
<title>openchami.target</title>
<ellipse fill="none" stroke="black" cx="310" cy="-666" rx="90.18" ry="18"/>
<text text-anchor="middle" x="310" y="-662.3" font-family="Times-Roman" font-size="14.00">openchami.target</text>
</g>
<!-- haproxy.service -->
<g id="node2" class="node">
<title>haproxy.service</title>
<ellipse fill="none" stroke="black" cx="425" cy="-522" rx="81.49" ry="18"/>
<text text-anchor="middle" x="425" y="-518.3" font-family="Times-Roman" font-size="14.00">haproxy.service</text>
</g>
<!-- openchami.target&#45;&gt;haproxy.service -->
<g id="edge1" class="edge">
<title>openchami.target&#45;&gt;haproxy.service</title>
<path fill="none" stroke="black" d="M353.91,-650.26C372.62,-641.85 393.07,-629.43 406,-612 419.2,-594.2 423.64,-569.19 424.96,-550.22"/>
<polygon fill="black" stroke="black" points="428.46,-550.25 425.41,-540.11 421.47,-549.94 428.46,-550.25"/>
</g>
<!-- smd.service -->
<g id="node3" class="node">
<title>smd.service</title>
<ellipse fill="none" stroke="black" cx="528" cy="-306" rx="65.79" ry="18"/>
<text text-anchor="middle" x="528" y="-302.3" font-family="Times-Roman" font-size="14.00">smd.service</text>
</g>
<!-- openchami.target&#45;&gt;smd.service -->
<g id="edge2" class="edge">
<title>openchami.target&#45;&gt;smd.service</title>
<path fill="none" stroke="black" d="M230.96,-657.19C150.65,-644.38 38,-610.76 38,-523 38,-523 38,-523 38,-449 38,-363.11 319.24,-325.86 455.59,-312.85"/>
<polygon fill="black" stroke="black" points="456.31,-316.29 465.94,-311.88 455.66,-309.32 456.31,-316.29"/>
</g>
<!-- opaal.service -->
<g id="node4" class="node">
<title>opaal.service</title>
<ellipse fill="none" stroke="black" cx="718" cy="-594" rx="70.39" ry="18"/>
<text text-anchor="middle" x="718" y="-590.3" font-family="Times-Roman" font-size="14.00">opaal.service</text>
</g>
<!-- openchami.target&#45;&gt;opaal.service -->
<g id="edge3" class="edge">
<title>openchami.target&#45;&gt;opaal.service</title>
<path fill="none" stroke="black" d="M376.01,-653.68C451.77,-640.68 575.33,-619.48 651.36,-606.43"/>
<polygon fill="black" stroke="black" points="652.04,-609.87 661.3,-604.73 650.85,-602.97 652.04,-609.87"/>
</g>
<!-- bss.service -->
<g id="node5" class="node">
<title>bss.service</title>
<ellipse fill="none" stroke="black" cx="646" cy="-450" rx="61.99" ry="18"/>
<text text-anchor="middle" x="646" y="-446.3" font-family="Times-Roman" font-size="14.00">bss.service</text>
</g>
<!-- openchami.target&#45;&gt;bss.service -->
<g id="edge4" class="edge">
<title>openchami.target&#45;&gt;bss.service</title>
<path fill="none" stroke="black" d="M349.22,-649.65C372.43,-639.98 402.08,-626.59 427,-612 500.34,-569.06 578.88,-506.86 619,-473.75"/>
<polygon fill="black" stroke="black" points="621.27,-476.41 626.73,-467.33 616.8,-471.02 621.27,-476.41"/>
</g>
<!-- cloud&#45;init&#45;server.service -->
<g id="node6" class="node">
<title>cloud&#45;init&#45;server.service</title>
<ellipse fill="none" stroke="black" cx="185" cy="-450" rx="118.88" ry="18"/>
<text text-anchor="middle" x="185" y="-446.3" font-family="Times-Roman" font-size="14.00">cloud&#45;init&#45;server.service</text>
</g>
<!-- openchami.target&#45;&gt;cloud&#45;init&#45;server.service -->
<g id="edge5" class="edge">
<title>openchami.target&#45;&gt;cloud&#45;init&#45;server.service</title>
<path fill="none" stroke="black" d="M265.34,-650.23C246.71,-641.86 226.54,-629.48 214,-612 185.39,-572.12 182.19,-512.72 183.13,-478.33"/>
<polygon fill="black" stroke="black" points="186.64,-478.23 183.56,-468.09 179.65,-477.94 186.64,-478.23"/>
</g>
<!-- coredhcp.service -->
<g id="node7" class="node">
<title>coredhcp.service</title>
<ellipse fill="none" stroke="black" cx="310" cy="-594" rx="87.18" ry="18"/>
<text text-anchor="middle" x="310" y="-590.3" font-family="Times-Roman" font-size="14.00">coredhcp.service</text>
</g>
<!-- openchami.target&#45;&gt;coredhcp.service -->
<g id="edge6" class="edge">
<title>openchami.target&#45;&gt;coredhcp.service</title>
<path fill="none" stroke="black" d="M310,-647.7C310,-639.98 310,-630.71 310,-622.11"/>
<polygon fill="black" stroke="black" points="313.5,-622.1 310,-612.1 306.5,-622.1 313.5,-622.1"/>
</g>
<!-- step&#45;ca.service -->
<g id="node8" class="node">
<title>step&#45;ca.service</title>
<ellipse fill="none" stroke="black" cx="393" cy="-90" rx="79.09" ry="18"/>
<text text-anchor="middle" x="393" y="-86.3" font-family="Times-Roman" font-size="14.00">step&#45;ca.service</text>
</g>
<!-- openchami.target&#45;&gt;step&#45;ca.service -->
<g id="edge7" class="edge">
<title>openchami.target&#45;&gt;step&#45;ca.service</title>
<path fill="none" stroke="black" d="M222.82,-661.21C131.13,-651.98 0,-621.56 0,-523 0,-523 0,-523 0,-233 0,-166.01 204.52,-121.78 318.48,-102.33"/>
<polygon fill="black" stroke="black" points="319.26,-105.74 328.54,-100.63 318.1,-98.84 319.26,-105.74"/>
</g>
<!-- haproxy.service&#45;&gt;smd.service -->
<g id="edge20" class="edge">
<title>haproxy.service&#45;&gt;smd.service</title>
<path fill="none" stroke="#a8a8a8" d="M479.8,-508.67C501.47,-500.82 524.23,-488.17 537,-468 562.92,-427.06 549.67,-367.88 538.38,-333.84"/>
<polygon fill="#a8a8a8" stroke="#a8a8a8" points="541.59,-332.41 534.98,-324.13 534.98,-334.72 541.59,-332.41"/>
</g>
<!-- haproxy.service&#45;&gt;bss.service -->
<g id="edge21" class="edge">
<title>haproxy.service&#45;&gt;bss.service</title>
<path fill="none" stroke="#a8a8a8" d="M469.46,-506.92C506.02,-495.34 557.82,-478.93 595.86,-466.88"/>
<polygon fill="#a8a8a8" stroke="#a8a8a8" points="597.23,-470.12 605.7,-463.76 595.11,-463.45 597.23,-470.12"/>
</g>
<!-- haproxy.service&#45;&gt;cloud&#45;init&#45;server.service -->
<g id="edge18" class="edge">
<title>haproxy.service&#45;&gt;cloud&#45;init&#45;server.service</title>
<path fill="none" stroke="#a8a8a8" d="M377.87,-507.25C340.54,-496.37 288.07,-481.06 247.28,-469.16"/>
<polygon fill="#a8a8a8" stroke="#a8a8a8" points="248.02,-465.74 237.44,-466.3 246.06,-472.46 248.02,-465.74"/>
</g>
<!-- acme&#45;deploy.service -->
<g id="node13" class="node">
<title>acme&#45;deploy.service</title>
<ellipse fill="none" stroke="black" cx="425" cy="-450" rx="102.88" ry="18"/>
<text text-anchor="middle" x="425" y="-446.3" font-family="Times-Roman" font-size="14.00">acme&#45;deploy.service</text>
</g>
<!-- haproxy.service&#45;&gt;acme&#45;deploy.service -->
<g id="edge17" class="edge">
<title>haproxy.service&#45;&gt;acme&#45;deploy.service</title>
<path fill="none" stroke="black" d="M419.08,-503.7C418.29,-495.98 418.06,-486.71 418.4,-478.11"/>
<polygon fill="black" stroke="black" points="421.9,-478.32 419.1,-468.1 414.92,-477.84 421.9,-478.32"/>
</g>
<!-- haproxy.service&#45;&gt;acme&#45;deploy.service -->
<g id="edge19" class="edge">
<title>haproxy.service&#45;&gt;acme&#45;deploy.service</title>
<path fill="none" stroke="#a8a8a8" d="M430.92,-503.7C431.71,-495.98 431.94,-486.71 431.6,-478.11"/>
<polygon fill="#a8a8a8" stroke="#a8a8a8" points="435.08,-477.84 430.9,-468.1 428.1,-478.32 435.08,-477.84"/>
</g>
<!-- smd&#45;init.service -->
<g id="node11" class="node">
<title>smd&#45;init.service</title>
<ellipse fill="none" stroke="black" cx="526" cy="-234" rx="83.39" ry="18"/>
<text text-anchor="middle" x="526" y="-230.3" font-family="Times-Roman" font-size="14.00">smd&#45;init.service</text>
</g>
<!-- smd.service&#45;&gt;smd&#45;init.service -->
<g id="edge9" class="edge">
<title>smd.service&#45;&gt;smd&#45;init.service</title>
<path fill="none" stroke="black" d="M527.51,-287.7C527.29,-279.98 527.02,-270.71 526.77,-262.11"/>
<polygon fill="black" stroke="black" points="530.27,-262 526.49,-252.1 523.28,-262.2 530.27,-262"/>
</g>
<!-- hydra&#45;gen&#45;jwks.service -->
<g id="node12" class="node">
<title>hydra&#45;gen&#45;jwks.service</title>
<ellipse fill="none" stroke="black" cx="781" cy="-234" rx="116.18" ry="18"/>
<text text-anchor="middle" x="781" y="-230.3" font-family="Times-Roman" font-size="14.00">hydra&#45;gen&#45;jwks.service</text>
</g>
<!-- smd.service&#45;&gt;hydra&#45;gen&#45;jwks.service -->
<g id="edge10" class="edge">
<title>smd.service&#45;&gt;hydra&#45;gen&#45;jwks.service</title>
<path fill="none" stroke="#a8a8a8" d="M572.36,-292.73C612.36,-281.66 671.68,-265.25 716.85,-252.75"/>
<polygon fill="#a8a8a8" stroke="#a8a8a8" points="717.85,-256.1 726.55,-250.06 715.98,-249.36 717.85,-256.1"/>
</g>
<!-- opaal&#45;idp.service -->
<g id="node16" class="node">
<title>opaal&#45;idp.service</title>
<ellipse fill="none" stroke="black" cx="748" cy="-522" rx="87.99" ry="18"/>
<text text-anchor="middle" x="748" y="-518.3" font-family="Times-Roman" font-size="14.00">opaal&#45;idp.service</text>
</g>
<!-- opaal.service&#45;&gt;opaal&#45;idp.service -->
<g id="edge16" class="edge">
<title>opaal.service&#45;&gt;opaal&#45;idp.service</title>
<path fill="none" stroke="#a8a8a8" d="M725.26,-576.05C728.68,-568.09 732.82,-558.41 736.64,-549.51"/>
<polygon fill="#a8a8a8" stroke="#a8a8a8" points="739.87,-550.85 740.6,-540.28 733.44,-548.09 739.87,-550.85"/>
</g>
<!-- bss.service&#45;&gt;smd.service -->
<g id="edge27" class="edge">
<title>bss.service&#45;&gt;smd.service</title>
<path fill="none" stroke="#a8a8a8" d="M624.59,-432.92C612.23,-423.05 596.83,-409.69 585,-396 568.07,-376.4 552.48,-351.36 541.9,-332.83"/>
<polygon fill="#a8a8a8" stroke="#a8a8a8" points="544.92,-331.07 536.98,-324.06 538.82,-334.49 544.92,-331.07"/>
</g>
<!-- bss.service&#45;&gt;hydra&#45;gen&#45;jwks.service -->
<g id="edge26" class="edge">
<title>bss.service&#45;&gt;hydra&#45;gen&#45;jwks.service</title>
<path fill="none" stroke="#a8a8a8" d="M693.95,-438.62C717.87,-430.92 745.04,-417.83 761,-396 789.72,-356.71 788.78,-297.11 785.14,-262.51"/>
<polygon fill="#a8a8a8" stroke="#a8a8a8" points="788.57,-261.73 783.89,-252.22 781.62,-262.57 788.57,-261.73"/>
</g>
<!-- bss&#45;init.service -->
<g id="node18" class="node">
<title>bss&#45;init.service</title>
<ellipse fill="none" stroke="black" cx="673" cy="-378" rx="79.09" ry="18"/>
<text text-anchor="middle" x="673" y="-374.3" font-family="Times-Roman" font-size="14.00">bss&#45;init.service</text>
</g>
<!-- bss.service&#45;&gt;bss&#45;init.service -->
<g id="edge25" class="edge">
<title>bss.service&#45;&gt;bss&#45;init.service</title>
<path fill="none" stroke="black" d="M652.54,-432.05C655.57,-424.18 659.26,-414.62 662.67,-405.79"/>
<polygon fill="black" stroke="black" points="666,-406.86 666.34,-396.28 659.47,-404.35 666,-406.86"/>
</g>
<!-- cloud&#45;init&#45;server.service&#45;&gt;smd.service -->
<g id="edge28" class="edge">
<title>cloud&#45;init&#45;server.service&#45;&gt;smd.service</title>
<path fill="none" stroke="#a8a8a8" d="M197.59,-431.98C213.67,-411.55 243.44,-377.83 277,-360 332.12,-330.71 402.12,-317.6 454.19,-311.74"/>
<polygon fill="#a8a8a8" stroke="#a8a8a8" points="454.78,-315.2 464.35,-310.66 454.04,-308.24 454.78,-315.2"/>
</g>
<!-- coredhcp.service&#45;&gt;haproxy.service -->
<g id="edge22" class="edge">
<title>coredhcp.service&#45;&gt;haproxy.service</title>
<path fill="none" stroke="#a8a8a8" d="M336.67,-576.76C352.49,-567.13 372.73,-554.81 389.85,-544.4"/>
<polygon fill="#a8a8a8" stroke="#a8a8a8" points="391.75,-547.34 398.47,-539.15 388.11,-541.36 391.75,-547.34"/>
</g>
<!-- acme&#45;register.service -->
<g id="node9" class="node">
<title>acme&#45;register.service</title>
<ellipse fill="none" stroke="black" cx="393" cy="-378" rx="107.48" ry="18"/>
<text text-anchor="middle" x="393" y="-374.3" font-family="Times-Roman" font-size="14.00">acme&#45;register.service</text>
</g>
<!-- openchami&#45;cert&#45;trust.service -->
<g id="node10" class="node">
<title>openchami&#45;cert&#45;trust.service</title>
<ellipse fill="none" stroke="black" cx="393" cy="-162" rx="141.88" ry="18"/>
<text text-anchor="middle" x="393" y="-158.3" font-family="Times-Roman" font-size="14.00">openchami&#45;cert&#45;trust.service</text>
</g>
<!-- acme&#45;register.service&#45;&gt;openchami&#45;cert&#45;trust.service -->
<g id="edge8" class="edge">
<title>acme&#45;register.service&#45;&gt;openchami&#45;cert&#45;trust.service</title>
<path fill="none" stroke="black" d="M393,-359.85C393,-322.83 393,-235.18 393,-190.39"/>
<polygon fill="black" stroke="black" points="396.5,-190.23 393,-180.23 389.5,-190.23 396.5,-190.23"/>
</g>
<!-- openchami&#45;cert&#45;trust.service&#45;&gt;step&#45;ca.service -->
<g id="edge31" class="edge">
<title>openchami&#45;cert&#45;trust.service&#45;&gt;step&#45;ca.service</title>
<path fill="none" stroke="black" d="M393,-143.7C393,-135.98 393,-126.71 393,-118.11"/>
<polygon fill="black" stroke="black" points="396.5,-118.1 393,-108.1 389.5,-118.1 396.5,-118.1"/>
</g>
<!-- postgres.service -->
<g id="node15" class="node">
<title>postgres.service</title>
<ellipse fill="none" stroke="black" cx="637" cy="-18" rx="85.29" ry="18"/>
<text text-anchor="middle" x="637" y="-14.3" font-family="Times-Roman" font-size="14.00">postgres.service</text>
</g>
<!-- smd&#45;init.service&#45;&gt;postgres.service -->
<g id="edge13" class="edge">
<title>smd&#45;init.service&#45;&gt;postgres.service</title>
<path fill="none" stroke="black" d="M534.9,-215.85C554.31,-178.43 600.56,-89.25 623.55,-44.93"/>
<polygon fill="black" stroke="black" points="626.72,-46.42 628.22,-35.94 620.5,-43.2 626.72,-46.42"/>
</g>
<!-- hydra.service -->
<g id="node14" class="node">
<title>hydra.service</title>
<ellipse fill="none" stroke="black" cx="775" cy="-162" rx="72.29" ry="18"/>
<text text-anchor="middle" x="775" y="-158.3" font-family="Times-Roman" font-size="14.00">hydra.service</text>
</g>
<!-- hydra&#45;gen&#45;jwks.service&#45;&gt;hydra.service -->
<g id="edge12" class="edge">
<title>hydra&#45;gen&#45;jwks.service&#45;&gt;hydra.service</title>
<path fill="none" stroke="#a8a8a8" d="M779.52,-215.7C778.86,-207.98 778.06,-198.71 777.32,-190.11"/>
<polygon fill="#a8a8a8" stroke="#a8a8a8" points="780.81,-189.77 776.47,-180.1 773.83,-190.37 780.81,-189.77"/>
</g>
<!-- acme&#45;deploy.service&#45;&gt;acme&#45;register.service -->
<g id="edge11" class="edge">
<title>acme&#45;deploy.service&#45;&gt;acme&#45;register.service</title>
<path fill="none" stroke="black" d="M417.09,-431.7C413.45,-423.73 409.05,-414.1 405.01,-405.26"/>
<polygon fill="black" stroke="black" points="408.16,-403.74 400.82,-396.1 401.79,-406.65 408.16,-403.74"/>
</g>
<!-- hydra.service&#45;&gt;step&#45;ca.service -->
<g id="edge24" class="edge">
<title>hydra.service&#45;&gt;step&#45;ca.service</title>
<path fill="none" stroke="#a8a8a8" d="M718.63,-150.67C650.65,-138.21 536.35,-117.27 462.84,-103.8"/>
<polygon fill="#a8a8a8" stroke="#a8a8a8" points="463.21,-100.31 452.75,-101.95 461.95,-107.19 463.21,-100.31"/>
</g>
<!-- hydra&#45;migrate.service -->
<g id="node17" class="node">
<title>hydra&#45;migrate.service</title>
<ellipse fill="none" stroke="black" cx="775" cy="-90" rx="110.48" ry="18"/>
<text text-anchor="middle" x="775" y="-86.3" font-family="Times-Roman" font-size="14.00">hydra&#45;migrate.service</text>
</g>
<!-- hydra.service&#45;&gt;hydra&#45;migrate.service -->
<g id="edge23" class="edge">
<title>hydra.service&#45;&gt;hydra&#45;migrate.service</title>
<path fill="none" stroke="black" d="M775,-143.7C775,-135.98 775,-126.71 775,-118.11"/>
<polygon fill="black" stroke="black" points="778.5,-118.1 775,-108.1 771.5,-118.1 778.5,-118.1"/>
</g>
<!-- opaal&#45;idp.service&#45;&gt;hydra&#45;gen&#45;jwks.service -->
<g id="edge14" class="edge">
<title>opaal&#45;idp.service&#45;&gt;hydra&#45;gen&#45;jwks.service</title>
<path fill="none" stroke="#a8a8a8" d="M754.28,-503.93C766.29,-470.15 792.06,-392.16 800,-324 801.85,-308.11 802.74,-303.76 800,-288 798.48,-279.24 795.64,-270.01 792.61,-261.75"/>
<polygon fill="#a8a8a8" stroke="#a8a8a8" points="795.79,-260.29 788.89,-252.25 789.28,-262.84 795.79,-260.29"/>
</g>
<!-- hydra&#45;migrate.service&#45;&gt;postgres.service -->
<g id="edge15" class="edge">
<title>hydra&#45;migrate.service&#45;&gt;postgres.service</title>
<path fill="none" stroke="black" d="M742.99,-72.76C723.43,-62.84 698.24,-50.07 677.33,-39.46"/>
<polygon fill="black" stroke="black" points="678.86,-36.31 668.36,-34.91 675.69,-42.55 678.86,-36.31"/>
</g>
<!-- bss&#45;init.service&#45;&gt;smd.service -->
<g id="edge30" class="edge">
<title>bss&#45;init.service&#45;&gt;smd.service</title>
<path fill="none" stroke="#a8a8a8" d="M640.82,-361.46C619.41,-351.13 591.11,-337.47 568.22,-326.42"/>
<polygon fill="#a8a8a8" stroke="#a8a8a8" points="569.62,-323.21 559.1,-322.01 566.58,-329.51 569.62,-323.21"/>
</g>
<!-- bss&#45;init.service&#45;&gt;postgres.service -->
<g id="edge29" class="edge">
<title>bss&#45;init.service&#45;&gt;postgres.service</title>
<path fill="none" stroke="black" d="M665.71,-359.87C655.2,-333.53 637,-281.29 637,-235 637,-235 637,-235 637,-161 637,-121 637,-74.65 637,-46.08"/>
<polygon fill="black" stroke="black" points="640.5,-46.05 637,-36.05 633.5,-46.05 640.5,-46.05"/>
</g>
</g>
</svg>
