<?xml version="1.0" encoding="UTF-8" standalone="no"?>
<!DOCTYPE svg PUBLIC "-//W3C//DTD SVG 1.1//EN"
 "http://www.w3.org/Graphics/SVG/1.1/DTD/svg11.dtd">
<!-- Generated by graphviz version 2.44.0 (0)
 -->
<!-- Title: systemd Pages: 1 -->
<svg width="893pt" height="692pt"
 viewBox="0.00 0.00 892.74 692.00" xmlns="http://www.w3.org/2000/svg" xmlns:xlink="http://www.w3.org/1999/xlink">
<g id="graph0" class="graph" transform="scale(1 1) rotate(0) translate(4 688)">
<title>systemd</title>
<polygon fill="white" stroke="transparent" points="-4,4 -4,-688 888.74,-688 888.74,4 -4,4"/>
<!-- opaal.service -->
<g id="node1" class="node">
<title>opaal.service</title>
<ellipse fill="none" stroke="black" cx="144.74" cy="-594" rx="70.39" ry="18"/>
<text text-anchor="middle" x="144.74" y="-590.3" font-family="Times-Roman" font-size="14.00">opaal.service</text>
</g>
<!-- opaal&#45;idp.service -->
<g id="node2" class="node">
<title>opaal&#45;idp.service</title>
<ellipse fill="none" stroke="black" cx="87.74" cy="-522" rx="87.99" ry="18"/>
<text text-anchor="middle" x="87.74" y="-518.3" font-family="Times-Roman" font-size="14.00">opaal&#45;idp.service</text>
</g>
<!-- opaal.service&#45;&gt;opaal&#45;idp.service -->
<g id="edge1" class="edge">
<title>opaal.service&#45;&gt;opaal&#45;idp.service</title>
<path fill="none" stroke="#a8a8a8" d="M130.94,-576.05C124.01,-567.54 115.48,-557.07 107.84,-547.68"/>
<polygon fill="#a8a8a8" stroke="#a8a8a8" points="110.44,-545.33 101.41,-539.79 105.01,-549.75 110.44,-545.33"/>
</g>
<!-- hydra&#45;gen&#45;jwks.service -->
<g id="node3" class="node">
<title>hydra&#45;gen&#45;jwks.service</title>
<ellipse fill="none" stroke="black" cx="252.74" cy="-234" rx="116.18" ry="18"/>
<text text-anchor="middle" x="252.74" y="-230.3" font-family="Times-Roman" font-size="14.00">hydra&#45;gen&#45;jwks.service</text>
</g>
<!-- opaal&#45;idp.service&#45;&gt;hydra&#45;gen&#45;jwks.service -->
<g id="edge9" class="edge">
<title>opaal&#45;idp.service&#45;&gt;hydra&#45;gen&#45;jwks.service</title>
<path fill="none" stroke="#a8a8a8" d="M77.62,-503.87C60.9,-473.13 31.82,-407.4 57.74,-360 86.71,-307.02 148.78,-273.19 195.16,-254.27"/>
<polygon fill="#a8a8a8" stroke="#a8a8a8" points="196.5,-257.5 204.51,-250.57 193.92,-250.99 196.5,-257.5"/>
</g>
<!-- hydra.service -->
<g id="node4" class="node">
<title>hydra.service</title>
<ellipse fill="none" stroke="black" cx="257.74" cy="-162" rx="72.29" ry="18"/>
<text text-anchor="middle" x="257.74" y="-158.3" font-family="Times-Roman" font-size="14.00">hydra.service</text>
</g>
<!-- hydra&#45;gen&#45;jwks.service&#45;&gt;hydra.service -->
<g id="edge2" class="edge">
<title>hydra&#45;gen&#45;jwks.service&#45;&gt;hydra.service</title>
<path fill="none" stroke="#a8a8a8" d="M253.98,-215.7C254.53,-207.98 255.19,-198.71 255.81,-190.11"/>
<polygon fill="#a8a8a8" stroke="#a8a8a8" points="259.3,-190.33 256.52,-180.1 252.32,-189.83 259.3,-190.33"/>
</g>
<!-- step&#45;ca.service -->
<g id="node13" class="node">
<title>step&#45;ca.service</title>
<ellipse fill="none" stroke="black" cx="581.74" cy="-90" rx="79.09" ry="18"/>
<text text-anchor="middle" x="581.74" y="-86.3" font-family="Times-Roman" font-size="14.00">step&#45;ca.service</text>
</g>
<!-- hydra.service&#45;&gt;step&#45;ca.service -->
<g id="edge30" class="edge">
<title>hydra.service&#45;&gt;step&#45;ca.service</title>
<path fill="none" stroke="#a8a8a8" d="M310.52,-149.6C366.83,-137.43 456.09,-118.15 516.7,-105.05"/>
<polygon fill="#a8a8a8" stroke="#a8a8a8" points="517.51,-108.46 526.55,-102.92 516.03,-101.62 517.51,-108.46"/>
</g>
<!-- hydra&#45;migrate.service -->
<g id="node14" class="node">
<title>hydra&#45;migrate.service</title>
<ellipse fill="none" stroke="black" cx="257.74" cy="-90" rx="110.48" ry="18"/>
<text text-anchor="middle" x="257.74" y="-86.3" font-family="Times-Roman" font-size="14.00">hydra&#45;migrate.service</text>
</g>
<!-- hydra.service&#45;&gt;hydra&#45;migrate.service -->
<g id="edge29" class="edge">
<title>hydra.service&#45;&gt;hydra&#45;migrate.service</title>
<path fill="none" stroke="black" d="M257.74,-143.7C257.74,-135.98 257.74,-126.71 257.74,-118.11"/>
<polygon fill="black" stroke="black" points="261.24,-118.1 257.74,-108.1 254.24,-118.1 261.24,-118.1"/>
</g>
<!-- coresmd.service -->
<g id="node5" class="node">
<title>coresmd.service</title>
<ellipse fill="none" stroke="black" cx="459.74" cy="-594" rx="84.49" ry="18"/>
<text text-anchor="middle" x="459.74" y="-590.3" font-family="Times-Roman" font-size="14.00">coresmd.service</text>
</g>
<!-- haproxy.service -->
<g id="node6" class="node">
<title>haproxy.service</title>
<ellipse fill="none" stroke="black" cx="459.74" cy="-522" rx="81.49" ry="18"/>
<text text-anchor="middle" x="459.74" y="-518.3" font-family="Times-Roman" font-size="14.00">haproxy.service</text>
</g>
<!-- coresmd.service&#45;&gt;haproxy.service -->
<g id="edge3" class="edge">
<title>coresmd.service&#45;&gt;haproxy.service</title>
<path fill="none" stroke="#a8a8a8" d="M459.74,-575.7C459.74,-567.98 459.74,-558.71 459.74,-550.11"/>
<polygon fill="#a8a8a8" stroke="#a8a8a8" points="463.24,-550.1 459.74,-540.1 456.24,-550.1 463.24,-550.1"/>
</g>
<!-- bss.service -->
<g id="node7" class="node">
<title>bss.service</title>
<ellipse fill="none" stroke="black" cx="238.74" cy="-450" rx="61.99" ry="18"/>
<text text-anchor="middle" x="238.74" y="-446.3" font-family="Times-Roman" font-size="14.00">bss.service</text>
</g>
<!-- haproxy.service&#45;&gt;bss.service -->
<g id="edge16" class="edge">
<title>haproxy.service&#45;&gt;bss.service</title>
<path fill="none" stroke="#a8a8a8" d="M415.29,-506.92C378.72,-495.34 326.92,-478.93 288.88,-466.88"/>
<polygon fill="#a8a8a8" stroke="#a8a8a8" points="289.63,-463.45 279.04,-463.76 287.51,-470.12 289.63,-463.45"/>
</g>
<!-- smd.service -->
<g id="node9" class="node">
<title>smd.service</title>
<ellipse fill="none" stroke="black" cx="346.74" cy="-306" rx="65.79" ry="18"/>
<text text-anchor="middle" x="346.74" y="-302.3" font-family="Times-Roman" font-size="14.00">smd.service</text>
</g>
<!-- haproxy.service&#45;&gt;smd.service -->
<g id="edge13" class="edge">
<title>haproxy.service&#45;&gt;smd.service</title>
<path fill="none" stroke="#a8a8a8" d="M405,-508.63C383.34,-500.77 360.58,-488.13 347.74,-468 321.73,-427.2 330.44,-367.97 338.81,-333.88"/>
<polygon fill="#a8a8a8" stroke="#a8a8a8" points="342.2,-334.72 341.35,-324.16 335.43,-332.95 342.2,-334.72"/>
</g>
<!-- acme&#45;deploy.service -->
<g id="node16" class="node">
<title>acme&#45;deploy.service</title>
<ellipse fill="none" stroke="black" cx="459.74" cy="-450" rx="102.88" ry="18"/>
<text text-anchor="middle" x="459.74" y="-446.3" font-family="Times-Roman" font-size="14.00">acme&#45;deploy.service</text>
</g>
<!-- haproxy.service&#45;&gt;acme&#45;deploy.service -->
<g id="edge12" class="edge">
<title>haproxy.service&#45;&gt;acme&#45;deploy.service</title>
<path fill="none" stroke="black" d="M453.83,-503.7C453.03,-495.98 452.8,-486.71 453.15,-478.11"/>
<polygon fill="black" stroke="black" points="456.64,-478.32 453.85,-468.1 449.66,-477.84 456.64,-478.32"/>
</g>
<!-- haproxy.service&#45;&gt;acme&#45;deploy.service -->
<g id="edge14" class="edge">
<title>haproxy.service&#45;&gt;acme&#45;deploy.service</title>
<path fill="none" stroke="#a8a8a8" d="M465.66,-503.7C466.45,-495.98 466.68,-486.71 466.34,-478.11"/>
<polygon fill="#a8a8a8" stroke="#a8a8a8" points="469.83,-477.84 465.64,-468.1 462.84,-478.32 469.83,-477.84"/>
</g>
<!-- cloud&#45;init&#45;server.service -->
<g id="node17" class="node">
<title>cloud&#45;init&#45;server.service</title>
<ellipse fill="none" stroke="black" cx="699.74" cy="-450" rx="118.88" ry="18"/>
<text text-anchor="middle" x="699.74" y="-446.3" font-family="Times-Roman" font-size="14.00">cloud&#45;init&#45;server.service</text>
</g>
<!-- haproxy.service&#45;&gt;cloud&#45;init&#45;server.service -->
<g id="edge15" class="edge">
<title>haproxy.service&#45;&gt;cloud&#45;init&#45;server.service</title>
<path fill="none" stroke="#a8a8a8" d="M506.87,-507.25C544.2,-496.37 596.67,-481.06 637.46,-469.16"/>
<polygon fill="#a8a8a8" stroke="#a8a8a8" points="638.68,-472.46 647.3,-466.3 636.72,-465.74 638.68,-472.46"/>
</g>
<!-- bss.service&#45;&gt;hydra&#45;gen&#45;jwks.service -->
<g id="edge6" class="edge">
<title>bss.service&#45;&gt;hydra&#45;gen&#45;jwks.service</title>
<path fill="none" stroke="#a8a8a8" d="M239.86,-431.85C242.29,-394.83 248.02,-307.18 250.95,-262.39"/>
<polygon fill="#a8a8a8" stroke="#a8a8a8" points="254.45,-262.44 251.61,-252.23 247.47,-261.98 254.45,-262.44"/>
</g>
<!-- bss&#45;init.service -->
<g id="node8" class="node">
<title>bss&#45;init.service</title>
<ellipse fill="none" stroke="black" cx="145.74" cy="-378" rx="79.09" ry="18"/>
<text text-anchor="middle" x="145.74" y="-374.3" font-family="Times-Roman" font-size="14.00">bss&#45;init.service</text>
</g>
<!-- bss.service&#45;&gt;bss&#45;init.service -->
<g id="edge4" class="edge">
<title>bss.service&#45;&gt;bss&#45;init.service</title>
<path fill="none" stroke="black" d="M217.17,-432.76C204.82,-423.47 189.13,-411.66 175.61,-401.48"/>
<polygon fill="black" stroke="black" points="177.61,-398.61 167.52,-395.39 173.4,-404.2 177.61,-398.61"/>
</g>
<!-- bss.service&#45;&gt;smd.service -->
<g id="edge5" class="edge">
<title>bss.service&#45;&gt;smd.service</title>
<path fill="none" stroke="#a8a8a8" d="M251.56,-432.15C270.47,-407.28 306,-360.57 327.89,-331.79"/>
<polygon fill="#a8a8a8" stroke="#a8a8a8" points="330.68,-333.9 333.95,-323.82 325.11,-329.67 330.68,-333.9"/>
</g>
<!-- bss&#45;init.service&#45;&gt;smd.service -->
<g id="edge28" class="edge">
<title>bss&#45;init.service&#45;&gt;smd.service</title>
<path fill="none" stroke="#a8a8a8" d="M187.39,-362.5C219.62,-351.27 264.33,-335.7 298.19,-323.91"/>
<polygon fill="#a8a8a8" stroke="#a8a8a8" points="299.58,-327.13 307.88,-320.54 297.28,-320.52 299.58,-327.13"/>
</g>
<!-- postgres.service -->
<g id="node11" class="node">
<title>postgres.service</title>
<ellipse fill="none" stroke="black" cx="257.74" cy="-18" rx="85.29" ry="18"/>
<text text-anchor="middle" x="257.74" y="-14.3" font-family="Times-Roman" font-size="14.00">postgres.service</text>
</g>
<!-- bss&#45;init.service&#45;&gt;postgres.service -->
<g id="edge27" class="edge">
<title>bss&#45;init.service&#45;&gt;postgres.service</title>
<path fill="none" stroke="black" d="M138.25,-359.89C127.44,-333.58 108.74,-281.37 108.74,-235 108.74,-235 108.74,-235 108.74,-161 108.74,-119.26 110.64,-102.87 138.74,-72 153.79,-55.47 174.96,-43.8 195.28,-35.71"/>
<polygon fill="black" stroke="black" points="196.7,-38.91 204.84,-32.13 194.25,-32.36 196.7,-38.91"/>
</g>
<!-- smd.service&#45;&gt;hydra&#45;gen&#45;jwks.service -->
<g id="edge18" class="edge">
<title>smd.service&#45;&gt;hydra&#45;gen&#45;jwks.service</title>
<path fill="none" stroke="#a8a8a8" d="M324.94,-288.76C312.63,-279.6 297.06,-268 283.52,-257.92"/>
<polygon fill="#a8a8a8" stroke="#a8a8a8" points="285.52,-255.04 275.41,-251.88 281.34,-260.66 285.52,-255.04"/>
</g>
<!-- smd&#45;init.service -->
<g id="node10" class="node">
<title>smd&#45;init.service</title>
<ellipse fill="none" stroke="black" cx="470.74" cy="-234" rx="83.39" ry="18"/>
<text text-anchor="middle" x="470.74" y="-230.3" font-family="Times-Roman" font-size="14.00">smd&#45;init.service</text>
</g>
<!-- smd.service&#45;&gt;smd&#45;init.service -->
<g id="edge17" class="edge">
<title>smd.service&#45;&gt;smd&#45;init.service</title>
<path fill="none" stroke="black" d="M374.26,-289.46C391.75,-279.59 414.62,-266.68 433.7,-255.91"/>
<polygon fill="black" stroke="black" points="435.45,-258.94 442.44,-250.98 432.01,-252.85 435.45,-258.94"/>
</g>
<!-- smd&#45;init.service&#45;&gt;postgres.service -->
<g id="edge7" class="edge">
<title>smd&#45;init.service&#45;&gt;postgres.service</title>
<path fill="none" stroke="black" d="M456.57,-215.91C448.52,-205.79 438.52,-192.54 430.74,-180 402.46,-134.39 415.53,-109.09 376.74,-72 360.09,-56.07 337.84,-44.43 317.09,-36.18"/>
<polygon fill="black" stroke="black" points="318.27,-32.89 307.68,-32.63 315.8,-39.44 318.27,-32.89"/>
</g>
<!-- openchami&#45;cert&#45;trust.service -->
<g id="node12" class="node">
<title>openchami&#45;cert&#45;trust.service</title>
<ellipse fill="none" stroke="black" cx="581.74" cy="-162" rx="141.88" ry="18"/>
<text text-anchor="middle" x="581.74" y="-158.3" font-family="Times-Roman" font-size="14.00">openchami&#45;cert&#45;trust.service</text>
</g>
<!-- openchami&#45;cert&#45;trust.service&#45;&gt;step&#45;ca.service -->
<g id="edge8" class="edge">
<title>openchami&#45;cert&#45;trust.service&#45;&gt;step&#45;ca.service</title>
<path fill="none" stroke="black" d="M581.74,-143.7C581.74,-135.98 581.74,-126.71 581.74,-118.11"/>
<polygon fill="black" stroke="black" points="585.24,-118.1 581.74,-108.1 578.24,-118.1 585.24,-118.1"/>
</g>
<!-- hydra&#45;migrate.service&#45;&gt;postgres.service -->
<g id="edge10" class="edge">
<title>hydra&#45;migrate.service&#45;&gt;postgres.service</title>
<path fill="none" stroke="black" d="M257.74,-71.7C257.74,-63.98 257.74,-54.71 257.74,-46.11"/>
<polygon fill="black" stroke="black" points="261.24,-46.1 257.74,-36.1 254.24,-46.1 261.24,-46.1"/>
</g>
<!-- acme&#45;register.service -->
<g id="node15" class="node">
<title>acme&#45;register.service</title>
<ellipse fill="none" stroke="black" cx="489.74" cy="-378" rx="107.48" ry="18"/>
<text text-anchor="middle" x="489.74" y="-374.3" font-family="Times-Roman" font-size="14.00">acme&#45;register.service</text>
</g>
<!-- acme&#45;register.service&#45;&gt;openchami&#45;cert&#45;trust.service -->
<g id="edge11" class="edge">
<title>acme&#45;register.service&#45;&gt;openchami&#45;cert&#45;trust.service</title>
<path fill="none" stroke="black" d="M501.99,-360.09C518.26,-336.86 546.77,-293.25 562.74,-252 570.48,-232.02 575.35,-208.23 578.22,-190.28"/>
<polygon fill="black" stroke="black" points="581.71,-190.6 579.72,-180.19 574.79,-189.57 581.71,-190.6"/>
</g>
<!-- acme&#45;deploy.service&#45;&gt;acme&#45;register.service -->
<g id="edge31" class="edge">
<title>acme&#45;deploy.service&#45;&gt;acme&#45;register.service</title>
<path fill="none" stroke="black" d="M467.16,-431.7C470.54,-423.81 474.61,-414.3 478.37,-405.55"/>
<polygon fill="black" stroke="black" points="481.69,-406.67 482.41,-396.1 475.26,-403.92 481.69,-406.67"/>
</g>
<!-- cloud&#45;init&#45;server.service&#45;&gt;smd.service -->
<g id="edge26" class="edge">
<title>cloud&#45;init&#45;server.service&#45;&gt;smd.service</title>
<path fill="none" stroke="#a8a8a8" d="M686.81,-431.95C670.32,-411.49 639.83,-377.75 605.74,-360 547.99,-329.94 474.71,-316.92 420.85,-311.28"/>
<polygon fill="#a8a8a8" stroke="#a8a8a8" points="420.98,-307.78 410.69,-310.28 420.3,-314.75 420.98,-307.78"/>
</g>
<!-- openchami.target -->
<g id="node18" class="node">
<title>openchami.target</title>
<ellipse fill="none" stroke="black" cx="571.74" cy="-666" rx="90.18" ry="18"/>
<text text-anchor="middle" x="571.74" y="-662.3" font-family="Times-Roman" font-size="14.00">openchami.target</text>
</g>
<!-- openchami.target&#45;&gt;opaal.service -->
<g id="edge24" class="edge">
<title>openchami.target&#45;&gt;opaal.service</title>
<path fill="none" stroke="black" d="M504.08,-653.91C424.14,-640.8 291.93,-619.13 212.11,-606.04"/>
<polygon fill="black" stroke="black" points="212.6,-602.58 202.17,-604.41 211.47,-609.49 212.6,-602.58"/>
</g>
<!-- openchami.target&#45;&gt;coresmd.service -->
<g id="edge20" class="edge">
<title>openchami.target&#45;&gt;coresmd.service</title>
<path fill="none" stroke="black" d="M545.48,-648.59C530.32,-639.11 511.05,-627.07 494.63,-616.8"/>
<polygon fill="black" stroke="black" points="496.17,-613.64 485.84,-611.31 492.46,-619.58 496.17,-613.64"/>
</g>
<!-- openchami.target&#45;&gt;haproxy.service -->
<g id="edge25" class="edge">
<title>openchami.target&#45;&gt;haproxy.service</title>
<path fill="none" stroke="black" d="M572.1,-647.93C571.66,-628.68 568.32,-597.3 552.74,-576 542.1,-561.46 526.18,-550.33 510.5,-542.11"/>
<polygon fill="black" stroke="black" points="511.86,-538.88 501.34,-537.61 508.77,-545.16 511.86,-538.88"/>
</g>
<!-- openchami.target&#45;&gt;bss.service -->
<g id="edge22" class="edge">
<title>openchami.target&#45;&gt;bss.service</title>
<path fill="none" stroke="black" d="M493.45,-656.8C453.07,-649.72 404.51,-636.53 366.74,-612 313.27,-577.27 272.13,-512.67 252.12,-476.76"/>
<polygon fill="black" stroke="black" points="255.13,-474.97 247.27,-467.86 248.98,-478.32 255.13,-474.97"/>
</g>
<!-- openchami.target&#45;&gt;smd.service -->
<g id="edge19" class="edge">
<title>openchami.target&#45;&gt;smd.service</title>
<path fill="none" stroke="black" d="M651.65,-657.48C732.85,-644.92 846.74,-611.52 846.74,-523 846.74,-523 846.74,-523 846.74,-449 846.74,-361.24 558.1,-324.86 419.43,-312.45"/>
<polygon fill="black" stroke="black" points="419.58,-308.95 409.31,-311.57 418.96,-315.93 419.58,-308.95"/>
</g>
<!-- openchami.target&#45;&gt;step&#45;ca.service -->
<g id="edge21" class="edge">
<title>openchami.target&#45;&gt;step&#45;ca.service</title>
<path fill="none" stroke="black" d="M659.35,-661.54C751.94,-652.63 884.74,-622.5 884.74,-523 884.74,-523 884.74,-523 884.74,-233 884.74,-136.93 758.29,-105.72 668.77,-95.67"/>
<polygon fill="black" stroke="black" points="668.9,-92.16 658.59,-94.6 668.17,-99.12 668.9,-92.16"/>
</g>
<!-- openchami.target&#45;&gt;cloud&#45;init&#45;server.service -->
<g id="edge23" class="edge">
<title>openchami.target&#45;&gt;cloud&#45;init&#45;server.service</title>
<path fill="none" stroke="black" d="M582,-647.85C604.43,-610.35 657.94,-520.88 684.4,-476.65"/>
<polygon fill="black" stroke="black" points="687.48,-478.31 689.61,-467.94 681.48,-474.72 687.48,-478.31"/>
</g>
</g>
</svg>
